<svg width="1024" height="1024" viewBox="0 0 1024 1024" fill="none" xmlns="http://www.w3.org/2000/svg">
<path d="M133.503 725.757C124.389 736.129 125.408 751.925 135.78 761.039C146.152 770.153 161.948 769.134 171.062 758.762L152.282 742.26L133.503 725.757ZM152.348 742.185L133.596 725.652L133.582 725.667L133.569 725.682L152.348 742.185ZM446.947 591.774L451.334 567.162L446.947 591.774ZM576.519 555.22L559.917 536.528L576.519 555.22ZM798.084 354.766L781.229 336.302L798.084 354.766ZM852.629 304.791L871.099 287.942L865.527 281.834L857.411 280.252L852.629 304.791ZM852.465 304.758L835.617 286.288L798.891 319.789L847.683 329.297L852.465 304.758ZM869.387 323.161C879.587 313.856 880.313 298.044 871.009 287.843C861.704 277.642 845.891 276.916 835.69 286.221L852.539 304.691L869.387 323.161ZM152.282 742.26L171.062 758.762L171.128 758.687L152.348 742.185L133.569 725.682L133.503 725.757L152.282 742.26ZM152.348 742.185L171.101 758.717C237.087 683.87 287.191 641.875 322.063 627.25L312.395 604.196L302.726 581.141C256.377 600.578 199.783 650.576 133.596 725.652L152.348 742.185ZM312.395 604.196L322.063 627.25C357.668 612.318 397.561 608.366 442.56 616.386L446.947 591.774L451.334 567.162C398.151 557.683 348.343 562.01 302.726 581.141L312.395 604.196ZM446.947 591.774L442.56 616.386C499.186 626.48 550.11 612.112 593.12 573.911L576.519 555.22L559.917 536.528C528.347 564.567 492.889 574.569 451.334 567.162L446.947 591.774ZM576.519 555.22L593.12 573.911C630.483 540.727 667.699 507.287 704.768 473.59L687.952 455.091L671.135 436.592C634.208 470.16 597.135 503.472 559.917 536.528L576.519 555.22ZM687.952 455.091L704.768 473.59C741.779 439.946 778.503 406.492 814.94 373.23L798.084 354.766L781.229 336.302C744.819 369.541 708.121 402.971 671.135 436.592L687.952 455.091ZM798.084 354.766L814.94 373.23C833.154 356.602 846.819 344.112 855.927 335.767C860.478 331.598 863.91 328.445 866.21 326.323C867.352 325.268 868.254 324.432 868.886 323.841C869.187 323.559 869.505 323.259 869.78 322.994C869.888 322.89 870.153 322.634 870.45 322.33C870.543 322.235 870.968 321.802 871.467 321.229C871.622 321.052 872.379 320.189 873.207 318.989C873.504 318.558 874.678 316.864 875.69 314.446C876.228 313.045 877.229 309.247 877.546 306.837C877.545 302.733 874.651 292.956 871.099 287.942L852.629 304.791L834.159 321.639C830.608 316.625 827.714 306.848 827.713 302.745C828.03 300.336 829.031 296.538 829.568 295.138C830.58 292.722 831.752 291.03 832.047 290.601C832.872 289.406 833.623 288.551 833.77 288.382C834.254 287.828 834.653 287.422 834.713 287.361C834.85 287.221 834.952 287.12 834.991 287.082C835.038 287.035 835.068 287.006 835.074 287.001C835.084 286.991 835.06 287.014 834.988 287.082C834.92 287.147 834.828 287.233 834.708 287.346C834.214 287.808 833.421 288.544 832.298 289.58C830.068 291.639 826.69 294.741 822.15 298.901C813.076 307.215 799.439 319.679 781.229 336.302L798.084 354.766ZM852.629 304.791L857.411 280.252L857.247 280.22L852.465 304.758L847.683 329.297L847.847 329.329L852.629 304.791ZM852.465 304.758L869.313 323.228L869.387 323.161L852.539 304.691L835.69 286.221L835.617 286.288L852.465 304.758Z" fill="black" style="fill:black;fill-opacity:1;"/>
<path d="M879.93 256.412C888.89 256.323 896.177 263.61 896.088 272.57L895.14 368.172C894.999 382.349 877.852 389.352 867.827 379.327L773.173 284.673C763.148 274.648 770.151 257.501 784.328 257.36L879.93 256.412Z" fill="black" style="fill:black;fill-opacity:1;"/>
</svg>
