<svg width="1024" height="1024" viewBox="0 0 1024 1024" fill="none" xmlns="http://www.w3.org/2000/svg">
<path d="M133.575 725.589C199.725 650.559 256.358 600.675 302.691 581.222C348.307 562.092 398.199 557.595 451.382 567.075C492.913 574.47 528.354 564.585 559.91 536.569C597.116 503.524 634.221 470.223 671.137 436.666C708.105 403.061 744.788 369.574 781.183 336.35C787.783 330.325 793.776 324.742 799.175 319.809L798.906 319.747L835.554 286.253L835.719 286.15C841.759 280.671 849.684 279.191 857.127 280.603L857.355 280.231L865.491 281.826L871.059 287.789C875.878 293.071 877.712 299.895 877.227 306.505L877.434 306.836C877.121 309.21 876.237 312.924 875.694 314.372C874.729 316.679 873.589 318.385 873.23 318.905C872.414 320.09 871.597 320.989 871.429 321.183C871 321.675 870.633 322.078 870.477 322.238C870.198 322.523 869.871 322.806 869.752 322.922C869.485 323.179 869.258 323.599 868.965 323.874C868.334 324.465 867.271 325.283 866.129 326.337C863.829 328.459 860.396 331.597 855.88 335.735C846.782 344.071 833.226 356.632 815.05 373.225C778.616 406.484 741.845 440.004 704.838 473.645C667.776 507.335 630.469 540.681 593.114 573.858C550.104 612.059 499.184 626.441 442.558 616.348C397.563 608.329 357.584 612.275 321.982 627.205C295.834 638.187 261.227 664.682 217.693 708.724L171.127 758.78C162.013 769.152 146.096 770.209 135.724 761.095C125.356 751.981 124.462 735.96 133.575 725.589Z" fill="black" style="fill:black;fill-opacity:1;"/>
<path d="M879.93 256.412C888.89 256.323 896.177 263.61 896.088 272.57L895.14 368.172C894.999 382.349 877.852 389.352 867.827 379.327L773.173 284.673C763.148 274.648 770.151 257.501 784.328 257.36L879.93 256.412Z" fill="black" style="fill:black;fill-opacity:1;"/>
</svg>
